PathFileType	4	(X/Y/Z)	/Users/itak/Documents/Research/Walk-IL/dataset/trc/00016_00004.trc
DataRate	CameraRate	NumFrames	NumMarkers	Units	OrigDataRate	OrigDataStartFrame	OrigNumFrames
100.000000	100.000000	4	53	mm	100.000000	135	540
Frame#	Time	RPSI			LPSI			L3			STRN			T10			C7			CLAV			RBAK			LBAK			LSHO			LUPA			LAEL			LAOL			LWTS			LWPS			LFRA			LIFD			LHPS			LHTS			RSHO			RUPA			RAEL			RAOL			RWTS			RWPS			RFRA			RIFD			RHTS			RHPS			RBHD			LFHD			RFHD			LBHD			LHIP			RHIP			RASI			LASI			LKNE			LTHI			LANK			LTIP			LTOE			LMT1			LMT5			LHEE			RKNE			RTHI			RANK			RTIP			RTOE			RMT1			RMT5			RHEE			
		X1	Y1	Z1	X2	Y2	Z2	X3	Y3	Z3	X4	Y4	Z4	X5	Y5	Z5	X6	Y6	Z6	X7	Y7	Z7	X8	Y8	Z8	X9	Y9	Z9	X10	Y10	Z10	X11	Y11	Z11	X12	Y12	Z12	X13	Y13	Z13	X14	Y14	Z14	X15	Y15	Z15	X16	Y16	Z16	X17	Y17	Z17	X18	Y18	Z18	X19	Y19	Z19	X20	Y20	Z20	X21	Y21	Z21	X22	Y22	Z22	X23	Y23	Z23	X24	Y24	Z24	X25	Y25	Z25	X26	Y26	Z26	X27	Y27	Z27	X28	Y28	Z28	X29	Y29	Z29	X30	Y30	Z30	X31	Y31	Z31	X32	Y32	Z32	X33	Y33	Z33	X34	Y34	Z34	X35	Y35	Z35	X36	Y36	Z36	X37	Y37	Z37	X38	Y38	Z38	X39	Y39	Z39	X40	Y40	Z40	X41	Y41	Z41	X42	Y42	Z42	X43	Y43	Z43	X44	Y44	Z44	X45	Y45	Z45	X46	Y46	Z46	X47	Y47	Z47	X48	Y48	Z48	X49	Y49	Z49	X50	Y50	Z50	X51	Y51	Z51	X52	Y52	Z52	X53	Y53	Z53	

136	1.35	1033.0068359375	1052.080322265625	-219.9564819335938	1023.229553222656	1045.54541015625	-383.7728881835938	1021.982360839844	1111.201904296875	-310.2744750976562	1238.957153320312	1312.286254882812	-308.8395080566406	991.5245361328125	1256.268188476562	-312.3891296386719	1030.4482421875	1525.618774414062	-322.3410034179688	1193.260498046875	1437.328857421875	-313.861572265625	982.8238525390625	1386.457275390625	-242.4116821289062	1017.087219238281	1482.887084960938	-420.105712890625	1121.564208984375	1491.947265625	-492.0897216796875	1093.858642578125	1367.184326171875	-570.525390625	1093.001342773438	1150.34375	-596.9208984375	1037.83984375	1137.31787109375	-508.572509765625	1180.28955078125	897.2850952148438	-543.7071533203125	1103.68017578125	882.9942626953125	-586.5750732421875	1105.413208007812	1034.181640625	-604.0037231445312	1208.05322265625	715.312744140625	-528.634033203125	1136.172607421875	793.2434692382812	-586.3214111328125	1201.224609375	803.7340087890625	-558.6279907226562	1107.279907226562	1512.8349609375	-146.1612701416016	1094.861572265625	1440.805541992188	-73.22611236572266	1061.5029296875	1172.808837890625	-50.75856781005859	1063.748291015625	1143.673828125	-146.1703643798828	1190.21630859375	912.9588623046875	-72.28493499755859	1121.785278320312	900.2069702148438	-11.14680099487305	1074.479125976562	1097.941528320312	-33.6837158203125	1207.263671875	728.0272216796875	-82.81629180908203	1220.671508789062	802.4619750976562	-52.43039321899414	1162.423217773438	800.1094360351562	-6.04918909072876	1069.023803710938	1695.697875976562	-239.2935791015625	1229.190307617188	1743.436279296875	-369.0393981933594	1234.117431640625	1745.278564453125	-270.306884765625	1052.995361328125	1695.637084960938	-382.6893920898438	1115.63818359375	949.705078125	-494.7001647949219	1155.050048828125	949.6652221679688	-125.4322814941406	1252.984130859375	985.2750244140625	-201.8314666748047	1235.206909179688	999.9802856445312	-436.9967041015625	1168.451904296875	505.4815979003906	-450.9775085449219	1139.5283203125	642.2410278320312	-484.7265625	1039.436279296875	29.84000205993652	-449.7488098144531	1073.394165039062	275.8093566894531	-466.4349060058594	1263.992553710938	22.92116928100586	-397.0287780761719	1205.232543945312	35.14321136474609	-377.3360290527344	1161.662353515625	25.85668182373047	-476.1855163574219	973.3764038085938	38.13156890869141	-392.8636169433594	1164.400756835938	514.1373901367188	-179.1913146972656	1183.47802734375	782.6049194335938	-129.7163696289062	1041.949829101562	34.99067306518555	-202.7677001953125	1138.031982421875	391.04443359375	-180.1268615722656	1271.7138671875	28.08560180664062	-251.1849517822266	1207.499389648438	35.07060623168945	-280.0832214355469	1190.891967773438	28.42184829711914	-183.5026550292969	983.6909790039062	37.89030075073242	-244.6537170410156	
137	1.36	1031.784545898438	1052.067993164062	-219.3185882568359	1022.103149414062	1045.619506835938	-383.0775756835938	1020.86328125	1111.403198242188	-309.5745239257812	1238.029418945312	1312.369506835938	-308.2490539550781	990.67578125	1256.587524414062	-311.6059875488281	1029.748779296875	1525.873046875	-321.6112060546875	1192.472045898438	1437.504150390625	-313.2651977539062	982.0402221679688	1386.768188476562	-241.6011199951172	1016.266052246094	1483.150634765625	-419.3534240722656	1120.688842773438	1492.145141601562	-491.40869140625	1092.885864257812	1367.407348632812	-569.8316650390625	1092.001098632812	1150.64599609375	-596.3677978515625	1036.82470703125	1137.537231445312	-508.0651245117188	1179.841918945312	897.8297119140625	-543.34619140625	1103.144165039062	883.2794799804688	-586.118408203125	1104.582153320312	1034.53515625	-603.5399780273438	1207.666748046875	715.1419067382812	-527.9998168945312	1135.88671875	793.6417236328125	-585.9417724609375	1200.950561523438	804.214111328125	-558.2208862304688	1106.713623046875	1513.081787109375	-145.4630279541016	1094.365600585938	1441.04638671875	-72.53147888183594	1061.1396484375	1173.009399414062	-50.00591278076172	1063.196655273438	1143.856079101562	-145.4412078857422	1190.281372070312	913.429931640625	-71.99061584472656	1122.027587890625	900.460205078125	-10.68640041351318	1074.233520507812	1098.109130859375	-33.00268173217773	1207.777954101562	728.4700927734375	-82.57234191894531	1221.025146484375	803.0496215820312	-52.29320526123047	1162.802368164062	800.4258422851562	-5.776044368743896	1068.272583007812	1695.958251953125	-238.8472595214844	1228.46533203125	1743.556396484375	-368.6502685546875	1233.3701171875	1745.444580078125	-269.8736267089844	1052.241088867188	1695.745971679688	-382.212890625	1114.31640625	949.8692626953125	-494.1753845214844	1154.025634765625	949.7218627929688	-124.8982238769531	1251.8310546875	985.472900390625	-201.3579406738281	1233.859619140625	1000.1982421875	-436.4711303710938	1169.740478515625	505.6294860839844	-450.8806457519531	1139.719116210938	642.457763671875	-484.5673217773438	1039.46240234375	29.95088577270508	-449.6776123046875	1074.269897460938	275.8165588378906	-466.3110961914062	1264.041870117188	22.85176086425781	-397.0060119628906	1205.262817382812	35.10727691650391	-377.3598327636719	1161.692626953125	25.84801483154297	-476.20361328125	973.4301147460938	38.39099502563477	-392.8378601074219	1164.532348632812	514.2006225585938	-179.0384674072266	1182.7958984375	782.8223266601562	-129.3641662597656	1041.97216796875	35.13529968261719	-202.933837890625	1138.365966796875	391.0264587402344	-180.0785522460938	1271.785278320312	28.01178932189941	-251.1375579833984	1207.543823242188	35.03702926635742	-280.1919250488281	1190.910888671875	28.4561653137207	-183.5863037109375	983.772216796875	38.17023086547852	-244.7829284667969	
138	1.37	1030.460083007812	1052.0625	-218.6334838867188	1020.824951171875	1045.712158203125	-382.3250122070312	1019.585693359375	1111.655151367188	-308.8310546875	1237.038818359375	1312.446411132812	-307.6636352539062	989.741943359375	1256.938842773438	-310.7669372558594	1029.037963867188	1526.153198242188	-320.8311767578125	1191.651245117188	1437.681274414062	-312.6689147949219	981.2404174804688	1387.119506835938	-240.7254028320312	1015.393432617188	1483.444091796875	-418.5560607910156	1119.758056640625	1492.35400390625	-490.6961669921875	1091.816528320312	1367.647216796875	-569.10107421875	1090.873413085938	1150.963256835938	-595.7914428710938	1035.753295898438	1137.7939453125	-507.5267944335938	1179.3505859375	898.4345703125	-542.9639282226562	1102.5595703125	883.5944213867188	-585.61767578125	1103.654174804688	1034.927734375	-603.0542602539062	1207.35546875	715.1180419921875	-527.3805541992188	1135.585205078125	794.0834350585938	-585.521240234375	1200.661254882812	804.7593994140625	-557.7886962890625	1106.1787109375	1513.358276367188	-144.7396545410156	1093.901489257812	1441.304809570312	-71.79645538330078	1060.781860351562	1173.236450195312	-49.18880081176758	1062.568115234375	1144.076782226562	-144.6640014648438	1190.340454101562	913.933837890625	-71.67398834228516	1122.305053710938	900.7380981445312	-10.19318962097168	1073.968872070312	1098.301147460938	-32.27956008911133	1208.3076171875	728.916259765625	-82.30394744873047	1221.419311523438	803.7211303710938	-52.18135070800781	1163.227172851562	800.7747192382812	-5.492859363555908	1067.50048828125	1696.224365234375	-238.3837432861328	1227.724243164062	1743.676147460938	-368.2172241210938	1232.599731445312	1745.617553710938	-269.4077453613281	1051.4833984375	1695.855102539062	-381.7238464355469	1112.840698242188	950.0455322265625	-493.6194763183594	1152.895385742188	949.77685546875	-124.3661193847656	1250.560668945312	985.6357421875	-200.8680114746094	1232.358642578125	1000.445129394531	-435.95849609375	1171.071655273438	505.8084106445312	-450.827880859375	1140.180053710938	642.619873046875	-484.3776245117188	1039.493896484375	30.08658409118652	-449.6143188476562	1075.174560546875	275.8488159179688	-466.1928100585938	1264.093017578125	22.79636573791504	-396.9841918945312	1205.294067382812	35.07325744628906	-377.385986328125	1161.723266601562	25.83806610107422	-476.2245483398438	973.4833984375	38.68729400634766	-392.8089599609375	1164.575561523438	514.2599487304688	-178.8304138183594	1182.01220703125	783.0391845703125	-129.0326385498047	1042.021484375	35.26814270019531	-203.1284942626953	1138.614135742188	391.017333984375	-180.0308990478516	1271.859741210938	27.95779609680176	-251.0985260009766	1207.593383789062	35.01882553100586	-280.3014831542969	1190.921508789062	28.49370574951172	-183.6819915771484	983.8623046875	38.43412017822266	-244.9528503417969	
139	1.38	1029.038208007812	1052.06103515625	-217.8996429443359	1019.376403808594	1045.824340820312	-381.5171203613281	1018.124816894531	1111.958740234375	-308.0420837402344	1235.98681640625	1312.516723632812	-307.0880126953125	988.7063598632812	1257.32763671875	-309.8704833984375	1028.313232421875	1526.458129882812	-319.9985961914062	1190.796508789062	1437.851928710938	-312.0727233886719	980.4345703125	1387.513061523438	-239.7803344726562	1014.467834472656	1483.766479492188	-417.7091064453125	1118.767578125	1492.5712890625	-489.9538269042969	1090.642333984375	1367.904541015625	-568.3347778320312	1089.605346679688	1151.29345703125	-595.19384765625	1034.584228515625	1138.09130859375	-506.9552917480469	1178.798706054688	899.0927734375	-542.5574340820312	1101.921264648438	883.9435424804688	-585.0690307617188	1102.610229492188	1035.342163085938	-602.5380249023438	1207.130004882812	715.2932739257812	-526.7915649414062	1135.255615234375	794.5643310546875	-585.0524291992188	1200.344116210938	805.3755493164062	-557.3341674804688	1105.680908203125	1513.661254882812	-143.9945373535156	1093.479370117188	1441.57666015625	-71.01959991455078	1060.42431640625	1173.4853515625	-48.31105041503906	1061.856567382812	1144.337280273438	-143.8367614746094	1190.394409179688	914.4577026367188	-71.34327697753906	1122.6083984375	901.0358276367188	-9.670010566711426	1073.692138671875	1098.514770507812	-31.51083183288574	1208.829956054688	729.3619995117188	-82.0250244140625	1221.837036132812	804.4396362304688	-52.08934020996094	1163.716430664062	801.15869140625	-5.184129238128662	1066.708984375	1696.48876953125	-237.8995056152344	1226.9638671875	1743.794677734375	-367.7389831542969	1231.805786132812	1745.800415039062	-268.9128112792969	1050.720947265625	1695.962280273438	-381.221923828125	1111.2001953125	950.2265625	-493.02978515625	1151.656372070312	949.8275146484375	-123.8362579345703	1249.166259765625	985.7652587890625	-200.3658294677734	1230.692749023438	1000.703308105469	-435.4519653320312	1172.414672851562	506.0177917480469	-450.8165588378906	1140.945434570312	642.7091064453125	-484.1554565429688	1039.533813476562	30.24777412414551	-449.5617065429688	1076.093383789062	275.9149169921875	-466.0841674804688	1264.148315429688	22.75472831726074	-396.9638061523438	1205.326538085938	35.04212951660156	-377.4153442382812	1161.754638671875	25.82638740539551	-476.2482299804688	973.5375366210938	39.01643753051758	-392.7818298339844	1164.519409179688	514.3178100585938	-178.5640411376953	1181.107299804688	783.248779296875	-128.70068359375	1042.09130859375	35.38497161865234	-203.3645629882812	1138.759643554688	391.0155334472656	-179.9696655273438	1271.937866210938	27.92524528503418	-251.0682678222656	1207.647338867188	35.01358795166016	-280.4081115722656	1190.92333984375	28.53644561767578	-183.7938537597656	983.9620361328125	38.67230987548828	-245.1850738525391	
